<?xml version="1.0" standalone="no"?>
<!DOCTYPE svg PUBLIC "-//W3C//DTD SVG 1.1//EN" "http://www.w3.org/Graphics/SVG/1.1/DTD/svg11.dtd" >
<svg xmlns="http://www.w3.org/2000/svg" xmlns:xlink="http://www.w3.org/1999/xlink" version="1.1">
<metadata>
Created by FontForge 20170924 at Tue Aug 17 01:58:15 2010
 By www-data
Copyright (c) Philippe BLONDEL www.philing.net,, 2010. All rights reserved.
</metadata>
<defs>
<font id="7LED" horiz-adv-x="598" >
  <font-face 
    font-family="7LED"
    font-weight="400"
    font-stretch="normal"
    units-per-em="1000"
    panose-1="0 0 0 0 0 0 0 0 0 0"
    ascent="800"
    descent="-200"
    x-height="914"
    cap-height="914"
    bbox="0 -101 1037 914"
    underline-thickness="50"
    underline-position="-175"
    unicode-range="U+0020-E001"
  />
<missing-glyph horiz-adv-x="500" 
 />
    <glyph glyph-name=".notdef" horiz-adv-x="500" 
 />
    <glyph glyph-name=".null" unicode="&#xe000;" horiz-adv-x="0" 
 />
    <glyph glyph-name="nonmarkingreturn" unicode="&#xe001;" horiz-adv-x="500" 
 />
    <glyph glyph-name="space" unicode=" " horiz-adv-x="400" 
d="M0 914h402v-1013h-402v1013z" />
    <glyph glyph-name=".0038" unicode="&#x26;" 
d="M600 -100v1014h-600v-1014h600zM494 -57h-392q-52 14 -62 65l110 42h298zM447 760h-297l-109 42q13 51 63 66h390zM521 412l43 -43v-361q-13 -52 -61 -65l-50 115v284zM447 482l68 -64l-62 -64h-303l-60 64l60 64h297zM453 488v264l50 116q48 -15 61 -66v-331l-42 -46z
M40 17v352l45 43l65 -71v-283zM150 752v-258l-65 -70l-45 47v321z" />
    <glyph glyph-name="quotesingle" unicode="'" horiz-adv-x="400" 
d="M0 914h402v-1013h-402v1013zM184 643l68 70v43l-50 115q-48 -13 -61 -65v-120z" />
    <glyph glyph-name=".0043" unicode="+" horiz-adv-x="1035" 
d="M1037 -100v1013l-1037 1v-1013zM447 482l68 -64l-62 -64h-303l-60 64l60 64h297zM884 481l68 -64l-62 -64h-303l-60 64l60 64h297zM521 412l43 -43v-361q-13 -51 -61 -64l-50 114v284zM454 486v264l50 116q47 -15 61 -66v-331l-42 -46z" />
    <glyph glyph-name=".0044" unicode="," horiz-adv-x="400" 
d="M402 -100v1014h-402v-1014h402zM218 171l43 -43v-120q-13 -52 -61 -65l-50 115v43z" />
    <glyph glyph-name=".0045" unicode="-" 
d="M600 -98v1012h-600v-1012h600zM447 482l68 -64l-62 -64h-303l-60 64l60 64h297z" />
    <glyph glyph-name="period" unicode="." horiz-adv-x="400" 
d="M402 -100v1014h-402v-1014h402zM218 128l43 -43v-77q-13 -52 -61 -65l-50 115z" />
    <glyph glyph-name="zero" unicode="0" 
d="M600 -100v1014h-600v-1014h600zM494 -57h-392q-52 14 -62 65l110 42h298zM447 760h-297l-109 42q13 51 63 66h390zM521 412l43 -43v-361q-13 -52 -61 -65l-50 115v284zM453 488v264l50 116q48 -15 61 -66v-331l-42 -46zM40 17v352l45 43l65 -71v-283zM150 752v-258
l-65 -70l-45 47v321z" />
    <glyph glyph-name="one" unicode="1" horiz-adv-x="400" 
d="M402 -100v1014h-402v-1014h402zM218 412l43 -43v-361q-13 -52 -61 -65l-50 115v284zM150 488v264l50 116q48 -15 61 -66v-331l-42 -46z" />
    <glyph glyph-name="two" unicode="2" 
d="M600 -100v1014h-600v-1014h600zM494 -57h-392q-52 14 -62 65l110 42h298zM447 760h-297l-109 42q13 51 63 66h390zM447 482l68 -64l-62 -64h-303l-60 64l60 64h297zM453 488v264l50 116q48 -15 61 -66v-331l-42 -46zM40 17v352l45 43l65 -71v-283z" />
    <glyph glyph-name="three" unicode="3" 
d="M600 -100v1014h-600v-1014h600zM494 -57h-392q-52 14 -62 65l110 42h298zM447 760h-297l-109 42q13 51 63 66h390zM521 412l43 -43v-361q-13 -52 -61 -65l-50 115v284zM447 482l68 -64l-62 -64h-303l-60 64l60 64h297zM453 488v264l50 116q48 -15 61 -66v-331l-42 -46z
" />
    <glyph glyph-name=".0052" unicode="4" 
d="M600 -100v1014h-600v-1014h600zM521 412l43 -43v-361q-13 -52 -61 -65l-50 115v284zM447 482l68 -64l-62 -64h-303l-60 64l60 64h297zM453 488v264l50 116q48 -15 61 -66v-331l-42 -46zM150 752v-258l-65 -70l-45 47v321z" />
    <glyph glyph-name=".0053" unicode="5" 
d="M600 -100v1014h-600v-1014h600zM494 -57h-392q-52 14 -62 65l110 42h298zM447 760h-297l-109 42q13 51 63 66h390zM521 412l43 -43v-361q-13 -52 -61 -65l-50 115v284zM447 482l68 -64l-62 -64h-303l-60 64l60 64h297zM150 752v-258l-65 -70l-45 47v321z" />
    <glyph glyph-name=".0054" unicode="6" 
d="M600 -100v1014h-600v-1014h600zM494 -57h-392q-52 14 -62 65l110 42h298zM447 760h-297l-109 42q13 51 63 66h390zM521 412l43 -43v-361q-13 -52 -61 -65l-50 115v284zM447 482l68 -64l-62 -64h-303l-60 64l60 64h297zM40 17v352l45 43l65 -71v-283zM150 752v-258
l-65 -70l-45 47v321z" />
    <glyph glyph-name=".0055" unicode="7" 
d="M600 -100v1014h-600v-1014h600zM447 760h-297l-109 42q13 51 63 66h390zM521 412l43 -43v-361q-13 -52 -61 -65l-50 115v284zM453 488v264l50 116q48 -15 61 -66v-331l-42 -46z" />
    <glyph glyph-name=".0056" unicode="8" 
d="M600 -100v1014h-600v-1014h600zM494 -57h-392q-52 14 -62 65l110 42h298zM447 760h-297l-109 42q13 51 63 66h390zM521 412l43 -43v-361q-13 -52 -61 -65l-50 115v284zM447 482l68 -64l-62 -64h-303l-60 64l60 64h297zM453 488v264l50 116q48 -15 61 -66v-331l-42 -46z
M40 17v352l45 43l65 -71v-283zM150 752v-258l-65 -70l-45 47v321z" />
    <glyph glyph-name=".0057" unicode="9" 
d="M600 -100v1014h-600v-1014h600zM494 -57h-392q-52 14 -62 65l110 42h298zM447 760h-297l-109 42q13 51 63 66h390zM521 412l43 -43v-361q-13 -52 -61 -65l-50 115v284zM447 482l68 -64l-62 -64h-303l-60 64l60 64h297zM453 488v264l50 116q48 -15 61 -66v-331l-42 -46z
M150 752v-258l-65 -70l-45 47v321z" />
    <glyph glyph-name=".0058" unicode=":" horiz-adv-x="400" 
d="M402 -99h-402v1013h402v-1013zM218 128l-68 -70l50 -114q48 13 61 64v77z" />
    <glyph glyph-name=".0059" unicode=";" horiz-adv-x="400" 
d="M402 -99h-402v1013h402v-1013zM218 128l-68 -70l50 -114q48 13 61 64v77z" />
    <glyph glyph-name=".0061" unicode="=" 
d="M600 -99v1013h-600v-1013h600zM447 482l68 -64l-62 -64h-303l-60 64l60 64h297zM494 -56h-392q-51 13 -62 64l110 42h298z" />
    <glyph glyph-name=".0065" unicode="A" 
d="M600 -100v1014h-600v-1014h600zM447 760h-297l-109 42q13 51 63 66h390zM521 412l43 -43v-361q-13 -52 -61 -65l-50 115v284zM447 482l68 -64l-62 -64h-303l-60 64l60 64h297zM453 488v264l50 116q48 -15 61 -66v-331l-42 -46zM40 17v352l45 43l65 -71v-283zM150 752
v-258l-65 -70l-45 47v321z" />
    <glyph glyph-name=".0066" unicode="B" 
d="M600 -100v1014h-600v-1014h600zM494 -57h-392q-52 14 -62 65l110 42h298zM521 412l43 -43v-361q-13 -52 -61 -65l-50 115v284zM447 482l68 -64l-62 -64h-303l-60 64l60 64h297zM40 17v352l45 43l65 -71v-283zM150 752v-258l-65 -70l-45 47v321z" />
    <glyph glyph-name=".0067" unicode="C" 
d="M600 -100v1014h-600v-1014h600zM494 -57h-392q-52 14 -62 65l110 42h298zM447 760h-297l-109 42q13 51 63 66h390zM40 17v352l45 43l65 -71v-283zM150 752v-258l-65 -70l-45 47v321z" />
    <glyph glyph-name=".0068" unicode="D" 
d="M600 -100v1014h-600v-1014h600zM494 -57h-392q-52 14 -62 65l110 42h298zM521 412l43 -43v-361q-13 -52 -61 -65l-50 115v284zM447 482l68 -64l-62 -64h-303l-60 64l60 64h297zM453 488v264l50 116q48 -15 61 -66v-331l-42 -46zM40 17v352l45 43l65 -71v-283z" />
    <glyph glyph-name=".0069" unicode="E" 
d="M600 -100v1014h-600v-1014h600zM494 -57h-392q-52 14 -62 65l110 42h298zM447 760h-297l-109 42q13 51 63 66h390zM447 482l68 -64l-62 -64h-303l-60 64l60 64h297zM40 17v352l45 43l65 -71v-283zM150 752v-258l-65 -70l-45 47v321z" />
    <glyph glyph-name=".0070" unicode="F" 
d="M600 -100v1014h-600v-1014h600zM447 760h-297l-109 42q13 51 63 66h390zM447 482l68 -64l-62 -64h-303l-60 64l60 64h297zM40 17v352l45 43l65 -71v-283zM150 752v-258l-65 -70l-45 47v321z" />
    <glyph glyph-name=".0071" unicode="G" 
d="M600 -100v1014h-600v-1014h600zM494 -57h-392q-52 14 -62 65l110 42h298zM447 760h-297l-109 42q13 51 63 66h390zM521 412l43 -43v-361q-13 -52 -61 -65l-50 115v284zM447 482l68 -64l-62 -64h-303l-60 64l60 64h297zM453 488v264l50 116q48 -15 61 -66v-331l-42 -46z
M150 752v-258l-65 -70l-45 47v321z" />
    <glyph glyph-name=".0072" unicode="H" 
d="M600 -100v1014h-600v-1014h600zM521 412l43 -43v-361q-13 -52 -61 -65l-50 115v284zM447 482l68 -64l-62 -64h-303l-60 64l60 64h297zM453 488v264l50 116q48 -15 61 -66v-331l-42 -46zM40 17v352l45 43l65 -71v-283zM150 752v-258l-65 -70l-45 47v321z" />
    <glyph glyph-name=".0073" unicode="I" 
d="M600 -100v1014h-600v-1014h600zM40 17v352l45 43l65 -71v-283zM150 752v-258l-65 -70l-45 47v321z" />
    <glyph glyph-name=".0074" unicode="J" 
d="M600 -100v1014h-600v-1014h600zM494 -57h-392q-52 14 -62 65l110 42h298zM521 412l43 -43v-361q-13 -52 -61 -65l-50 115v284zM453 488v264l50 116q48 -15 61 -66v-331l-42 -46zM40 17v352l45 43l65 -71v-283z" />
    <glyph glyph-name=".0075" unicode="K" 
d="M600 -99v1013h-600v-1013h600zM447 482l68 -64l-62 -64h-303l-60 64l60 64h297zM521 412l43 -43v-361q-13 -51 -61 -64l-50 114v284zM150 752v-258l-65 -70l-45 47v321z" />
    <glyph glyph-name=".0076" unicode="L" 
d="M600 -100v1014h-600v-1014h600zM494 -57h-392q-52 14 -62 65l110 42h298zM40 17v352l45 43l65 -71v-283zM150 752v-258l-65 -70l-45 47v321z" />
    <glyph glyph-name=".0077" unicode="M" horiz-adv-x="1034" 
d="M1037 -101v1014l-1037 1v-1014zM447 482l68 -64l-62 -64h-303l-60 64l60 64h297zM884 481l68 -64l-62 -64h-303l-60 64l60 64h297zM958 411l43 -43v-361q-13 -52 -61 -65l-50 115v284zM521 412l43 -43v-361q-13 -52 -61 -65l-50 115v284zM40 17v352l45 43l65 -71v-283z
" />
    <glyph glyph-name=".0078" unicode="N" 
d="M600 -100v1014h-600v-1014h600zM521 412l43 -43v-361q-13 -52 -61 -65l-50 115v284zM447 482l68 -64l-62 -64h-303l-60 64l60 64h297zM40 17v352l45 43l65 -71v-283z" />
    <glyph glyph-name=".0079" unicode="O" 
d="M600 -100v1014h-600v-1014h600zM494 -57h-392q-52 14 -62 65l110 42h298zM447 760h-297l-109 42q13 51 63 66h390zM521 412l43 -43v-361q-13 -52 -61 -65l-50 115v284zM453 488v264l50 116q48 -15 61 -66v-331l-42 -46zM40 17v352l45 43l65 -71v-283zM150 752v-258
l-65 -70l-45 47v321z" />
    <glyph glyph-name=".0080" unicode="P" 
d="M600 -100v1014h-600v-1014h600zM447 760h-297l-109 42q13 51 63 66h390zM447 482l68 -64l-62 -64h-303l-60 64l60 64h297zM453 488v264l50 116q48 -15 61 -66v-331l-42 -46zM40 17v352l45 43l65 -71v-283zM150 752v-258l-65 -70l-45 47v321z" />
    <glyph glyph-name=".0081" unicode="Q" 
d="M600 -100v1014h-600v-1014h600zM447 760h-297l-109 42q13 51 63 66h390zM521 412l43 -43v-361q-13 -52 -61 -65l-50 115v284zM447 482l68 -64l-62 -64h-303l-60 64l60 64h297zM453 488v264l50 116q48 -15 61 -66v-331l-42 -46zM150 752v-258l-65 -70l-45 47v321z" />
    <glyph glyph-name=".0082" unicode="R" 
d="M600 -100v1014h-600v-1014h600zM447 760h-297l-109 42q13 51 63 66h390zM521 412l43 -43v-361q-13 -52 -61 -65l-50 115v284zM447 482l68 -64l-62 -64h-303l-60 64l60 64h297zM453 488v264l50 116q48 -15 61 -66v-331l-42 -46zM40 17v352l45 43l65 -71v-283zM150 752
v-258l-65 -70l-45 47v321z" />
    <glyph glyph-name=".0083" unicode="S" 
d="M600 -100v1014h-600v-1014h600zM494 -57h-392q-52 14 -62 65l110 42h298zM447 760h-297l-109 42q13 51 63 66h390zM521 412l43 -43v-361q-13 -52 -61 -65l-50 115v284zM447 482l68 -64l-62 -64h-303l-60 64l60 64h297zM150 752v-258l-65 -70l-45 47v321z" />
    <glyph glyph-name=".0084" unicode="T" 
d="M600 -100v1014h-600v-1014h600zM494 -57h-392q-52 14 -62 65l110 42h298zM447 482l68 -64l-62 -64h-303l-60 64l60 64h297zM40 17v352l45 43l65 -71v-283zM150 752v-258l-65 -70l-45 47v321z" />
    <glyph glyph-name=".0085" unicode="U" 
d="M600 -100v1014h-600v-1014h600zM494 -57h-392q-52 14 -62 65l110 42h298zM521 412l43 -43v-361q-13 -52 -61 -65l-50 115v284zM453 488v264l50 116q48 -15 61 -66v-331l-42 -46zM40 17v352l45 43l65 -71v-283zM150 752v-258l-65 -70l-45 47v321z" />
    <glyph glyph-name=".0086" unicode="V" 
d="M600 -100v1014h-600v-1014h600zM494 -57h-392q-52 14 -62 65l110 42h298zM521 412l43 -43v-361q-13 -52 -61 -65l-50 115v284zM40 17v352l45 43l65 -71v-283z" />
    <glyph glyph-name=".0087" unicode="W" horiz-adv-x="1035" 
d="M1037 -101v1014l-1037 1v-1014zM593 -58l-68 64l62 64h303l60 -64l-60 -64h-297zM156 -57l-68 64l62 64h303l60 -64l-60 -64h-297zM82 13l-43 43v361q13 52 61 65l50 -115v-284zM519 12l-43 43v361q13 52 61 65l50 -115v-284zM1000 407v-352l-45 -43l-65 71v283z" />
    <glyph glyph-name=".0088" unicode="X" 
d="M600 -99v1013h-600v-1013h600zM447 482l68 -64l-62 -64h-303l-60 64l60 64h297zM453 488v264l50 116q47 -15 61 -66v-331l-42 -46zM40 17v352l45 43l65 -71v-283z" />
    <glyph glyph-name=".0089" unicode="Y" 
d="M600 -100v1014h-600v-1014h600zM521 412l43 -43v-361q-13 -52 -61 -65l-50 115v284zM447 482l68 -64l-62 -64h-303l-60 64l60 64h297zM453 488v264l50 116q48 -15 61 -66v-331l-42 -46zM150 752v-258l-65 -70l-45 47v321z" />
    <glyph glyph-name=".0090" unicode="Z" 
d="M600 -100v1014h-600v-1014h600zM494 -57h-392q-52 14 -62 65l110 42h298zM447 760h-297l-109 42q13 51 63 66h390zM447 482l68 -64l-62 -64h-303l-60 64l60 64h297zM453 488v264l50 116q48 -15 61 -66v-331l-42 -46zM40 17v352l45 43l65 -71v-283z" />
    <glyph glyph-name=".0097" unicode="a" 
d="M600 -100v1014h-600v-1014h600zM447 760h-297l-109 42q13 51 63 66h390zM521 412l43 -43v-361q-13 -52 -61 -65l-50 115v284zM447 482l68 -64l-62 -64h-303l-60 64l60 64h297zM453 488v264l50 116q48 -15 61 -66v-331l-42 -46zM40 17v352l45 43l65 -71v-283zM150 752
v-258l-65 -70l-45 47v321z" />
    <glyph glyph-name=".0098" unicode="b" 
d="M600 -100v1014h-600v-1014h600zM494 -57h-392q-52 14 -62 65l110 42h298zM521 412l43 -43v-361q-13 -52 -61 -65l-50 115v284zM447 482l68 -64l-62 -64h-303l-60 64l60 64h297zM40 17v352l45 43l65 -71v-283zM150 752v-258l-65 -70l-45 47v321z" />
    <glyph glyph-name=".0099" unicode="c" 
d="M600 -100v1014h-600v-1014h600zM494 -57h-392q-52 14 -62 65l110 42h298zM447 482l68 -64l-62 -64h-303l-60 64l60 64h297zM40 17v352l45 43l65 -71v-283z" />
    <glyph glyph-name=".0100" unicode="d" 
d="M600 -100v1014h-600v-1014h600zM494 -57h-392q-52 14 -62 65l110 42h298zM521 412l43 -43v-361q-13 -52 -61 -65l-50 115v284zM447 482l68 -64l-62 -64h-303l-60 64l60 64h297zM453 488v264l50 116q48 -15 61 -66v-331l-42 -46zM40 17v352l45 43l65 -71v-283z" />
    <glyph glyph-name=".0101" unicode="e" 
d="M600 -100v1014h-600v-1014h600zM494 -57h-392q-52 14 -62 65l110 42h298zM447 760h-297l-109 42q13 51 63 66h390zM447 482l68 -64l-62 -64h-303l-60 64l60 64h297zM40 17v352l45 43l65 -71v-283zM150 752v-258l-65 -70l-45 47v321z" />
    <glyph glyph-name=".0102" unicode="f" 
d="M600 -100v1014h-600v-1014h600zM447 760h-297l-109 42q13 51 63 66h390zM447 482l68 -64l-62 -64h-303l-60 64l60 64h297zM40 17v352l45 43l65 -71v-283zM150 752v-258l-65 -70l-45 47v321z" />
    <glyph glyph-name=".0103" unicode="g" 
d="M600 -100v1014h-600v-1014h600zM494 -57h-392q-52 14 -62 65l110 42h298zM447 760h-297l-109 42q13 51 63 66h390zM521 412l43 -43v-361q-13 -52 -61 -65l-50 115v284zM447 482l68 -64l-62 -64h-303l-60 64l60 64h297zM453 488v264l50 116q48 -15 61 -66v-331l-42 -46z
M150 752v-258l-65 -70l-45 47v321z" />
    <glyph glyph-name=".0104" unicode="h" 
d="M600 -100v1014h-600v-1014h600zM521 412l43 -43v-361q-13 -52 -61 -65l-50 115v284zM447 482l68 -64l-62 -64h-303l-60 64l60 64h297zM40 17v352l45 43l65 -71v-283zM150 752v-258l-65 -70l-45 47v321z" />
    <glyph glyph-name=".0105" unicode="i" 
d="M600 -100v1014h-600v-1014h600zM40 17v352l45 43l65 -71v-283z" />
    <glyph glyph-name=".0106" unicode="j" 
d="M600 -100v1014h-600v-1014h600zM494 -57h-392q-52 14 -62 65l110 42h298zM521 412l43 -43v-361q-13 -52 -61 -65l-50 115v284zM453 488v264l50 116q48 -15 61 -66v-331l-42 -46zM40 17v352l45 43l65 -71v-283z" />
    <glyph glyph-name=".0107" unicode="k" 
d="M600 -99v1013h-600v-1013h600zM447 482l68 -64l-62 -64h-303l-60 64l60 64h297zM521 412l43 -43v-361q-13 -51 -61 -64l-50 114v284zM150 752v-258l-65 -70l-45 47v321z" />
    <glyph glyph-name=".0108" unicode="l" 
d="M600 -100v1014h-600v-1014h600zM494 -57h-392q-52 14 -62 65l110 42h298zM40 17v352l45 43l65 -71v-283z" />
    <glyph glyph-name=".0109" unicode="m" horiz-adv-x="1035" 
d="M1037 -101v1014l-1037 1v-1014zM447 482l68 -64l-62 -64h-303l-60 64l60 64h297zM884 481l68 -64l-62 -64h-303l-60 64l60 64h297zM958 411l43 -43v-361q-13 -52 -61 -65l-50 115v284zM521 412l43 -43v-361q-13 -52 -61 -65l-50 115v284zM40 17v352l45 43l65 -71v-283z
" />
    <glyph glyph-name=".0110" unicode="n" 
d="M600 -100v1014h-600v-1014h600zM521 412l43 -43v-361q-13 -52 -61 -65l-50 115v284zM447 482l68 -64l-62 -64h-303l-60 64l60 64h297zM40 17v352l45 43l65 -71v-283z" />
    <glyph glyph-name=".0111" unicode="o" 
d="M600 -100v1014h-600v-1014h600zM494 -57h-392q-52 14 -62 65l110 42h298zM521 412l43 -43v-361q-13 -52 -61 -65l-50 115v284zM447 482l68 -64l-62 -64h-303l-60 64l60 64h297zM40 17v352l45 43l65 -71v-283z" />
    <glyph glyph-name=".0112" unicode="p" 
d="M600 -100v1014h-600v-1014h600zM447 760h-297l-109 42q13 51 63 66h390zM447 482l68 -64l-62 -64h-303l-60 64l60 64h297zM453 488v264l50 116q48 -15 61 -66v-331l-42 -46zM40 17v352l45 43l65 -71v-283zM150 752v-258l-65 -70l-45 47v321z" />
    <glyph glyph-name=".0113" unicode="q" 
d="M600 -100v1014h-600v-1014h600zM447 760h-297l-109 42q13 51 63 66h390zM521 412l43 -43v-361q-13 -52 -61 -65l-50 115v284zM447 482l68 -64l-62 -64h-303l-60 64l60 64h297zM453 488v264l50 116q48 -15 61 -66v-331l-42 -46zM150 752v-258l-65 -70l-45 47v321z" />
    <glyph glyph-name=".0114" unicode="r" 
d="M600 -100v1014h-600v-1014h600zM447 482l68 -64l-62 -64h-303l-60 64l60 64h297zM40 17v352l45 43l65 -71v-283z" />
    <glyph glyph-name=".0115" unicode="s" 
d="M600 -100v1014h-600v-1014h600zM494 -57h-392q-52 14 -62 65l110 42h298zM447 760h-297l-109 42q13 51 63 66h390zM521 412l43 -43v-361q-13 -52 -61 -65l-50 115v284zM447 482l68 -64l-62 -64h-303l-60 64l60 64h297zM150 752v-258l-65 -70l-45 47v321z" />
    <glyph glyph-name=".0116" unicode="t" 
d="M600 -100v1014h-600v-1014h600zM494 -57h-392q-52 14 -62 65l110 42h298zM447 482l68 -64l-62 -64h-303l-60 64l60 64h297zM40 17v352l45 43l65 -71v-283zM150 752v-258l-65 -70l-45 47v321z" />
    <glyph glyph-name=".0117" unicode="u" 
d="M600 -100v1014h-600v-1014h600zM494 -57h-392q-52 14 -62 65l110 42h298zM521 412l43 -43v-361q-13 -52 -61 -65l-50 115v284zM40 17v352l45 43l65 -71v-283z" />
    <glyph glyph-name=".0118" unicode="v" 
d="M600 -100v1014h-600v-1014h600zM494 -57h-392q-52 14 -62 65l110 42h298zM521 412l43 -43v-361q-13 -52 -61 -65l-50 115v284zM40 17v352l45 43l65 -71v-283z" />
    <glyph glyph-name=".0119" unicode="w" horiz-adv-x="1035" 
d="M1037 -101v1014l-1037 1v-1014zM593 -58l-68 64l62 64h303l60 -64l-60 -64h-297zM156 -57l-68 64l62 64h303l60 -64l-60 -64h-297zM82 13l-43 43v361q13 52 61 65l50 -115v-284zM519 12l-43 43v361q13 52 61 65l50 -115v-284zM1000 407v-352l-45 -43l-65 71v283z" />
    <glyph glyph-name=".0120" unicode="x" 
d="M600 -99v1013h-600v-1013h600zM447 482l68 -64l-62 -64h-303l-60 64l60 64h297zM453 488v264l50 116q47 -15 61 -66v-331l-42 -46zM40 17v352l45 43l65 -71v-283z" />
    <glyph glyph-name=".0121" unicode="y" 
d="M600 -100v1014h-600v-1014h600zM521 412l43 -43v-361q-13 -52 -61 -65l-50 115v284zM447 482l68 -64l-62 -64h-303l-60 64l60 64h297zM453 488v264l50 116q48 -15 61 -66v-331l-42 -46zM150 752v-258l-65 -70l-45 47v321z" />
    <glyph glyph-name=".0122" unicode="z" 
d="M600 -100v1014h-600v-1014h600zM494 -57h-392q-52 14 -62 65l110 42h298zM447 760h-297l-109 42q13 51 63 66h390zM447 482l68 -64l-62 -64h-303l-60 64l60 64h297zM453 488v264l50 116q48 -15 61 -66v-331l-42 -46zM40 17v352l45 43l65 -71v-283z" />
    <glyph glyph-name=".0146" unicode="&#x2019;" horiz-adv-x="400" 
d="M0 914h402v-1013h-402v1013zM184 643l68 70v43l-50 115q-48 -13 -61 -65v-120z" />
  </font>
</defs>
</svg>
